<?xml version="1.0" encoding="utf-8"?>
<!-- Generator: Adobe Illustrator 26.0.0, SVG Export Plug-In . SVG Version: 6.00 Build 0)  -->
<svg version="1.1" id="Layer_1" xmlns="http://www.w3.org/2000/svg" xmlns:xlink="http://www.w3.org/1999/xlink" x="0px" y="0px"
	 viewBox="0 0 241 243" style="enable-background:new 0 0 241 243;" xml:space="preserve">
<style type="text/css">
	.st0{display:none;}
	.st1{display:none;opacity:0.23;}
	.st2{display:inline;}
	.st3{clip-path:url(#SVGID_00000029731794969230542590000009780318870796908419_);}
	.st4{clip-path:url(#SVGID_00000080929547194524664500000006192798313718980245_);}
	.st5{fill:#FFFFFF;}
	.st6{enable-background:new    ;}
</style>
<rect x="0.6" y="1.2" class="st0" width="241.7" height="243.3"/>
<g class="st1">
	<g class="st2">
		<g>
			<g>
				<defs>
					<rect id="SVGID_1_" width="241.7" height="194.5"/>
				</defs>
				<clipPath id="SVGID_00000057855051749421792520000004626660596804972205_">
					<use xlink:href="#SVGID_1_"  style="overflow:visible;"/>
				</clipPath>
				<g style="clip-path:url(#SVGID_00000057855051749421792520000004626660596804972205_);">
					
						<image style="overflow:visible;enable-background:new    ;" width="326" height="329" xlink:href="D58850E7.png"  transform="matrix(0.7386 0 0 0.7386 17.4922 -0.2592)">
					</image>
				</g>
			</g>
		</g>
	</g>
</g>
<rect x="-2.1" y="184.2" class="st0" width="270" height="66.7"/>
<g class="st1">
	<g class="st2">
		<g>
			<g>
				<defs>
					<rect id="SVGID_00000003104247420661436680000006963539638860841899_" x="-1.4" y="202" width="243.9" height="41.5"/>
				</defs>
				<clipPath id="SVGID_00000130648264331409426200000016311457489932930443_">
					<use xlink:href="#SVGID_00000003104247420661436680000006963539638860841899_"  style="overflow:visible;"/>
				</clipPath>
				<g style="clip-path:url(#SVGID_00000130648264331409426200000016311457489932930443_);">
					
						<image style="overflow:visible;enable-background:new    ;" width="327" height="329" xlink:href="D58850E5.png"  transform="matrix(0.7386 0 0 0.7386 -1.4316 -0.2592)">
					</image>
				</g>
			</g>
		</g>
	</g>
</g>
<path class="st5" d="M196.3,1.9c-0.5-0.6-1.5-0.1-1.4,0.7c1.4,6.9,2.2,14.1,2.2,21.4c0,57.4-46.5,103.9-103.9,103.9
	c-1.2,0-2.3,0-3.5-0.1c-0.3-0.1-1.7-0.4-2.1-0.5c-10.2-1.4-3.2-11.4-3.2-11.4c31.2-43.7,24.4-42,28.8-46.4c2.9-3-0.3-8.3-1.8-10.6
	c-0.4-0.6-1.3-0.6-1.6,0c-1,1.7-2.4,3-3.6,3.9c-1.1,0.8-2.9,1.8-4.2,2.1c-5.3,1-6.2,5.1-6.8,7.4c-0.6,2.5-2.1,4.9-4.7,6
	c-2.3,0.9-17.4,1-21.9-1.1c-4.2-2-13.7-4.4-21.1,1.8c-6.6,5.5-8.2,6.5-13.9,9.1c-3.6,1.6-7.5,5.6-9.2,7.5c-0.2,0.2,0,0.4,0.3,0.3
	c4.7-2.1,17.3-3.5,20.8-3.9c0.7-0.1,1.9-0.2,2.3,0.3c0.8,0.9,1.3,2.9,0.1,5c-2.7,4.8-9.5,3.9-10.3,5.4s-1.7,6-2,7.7
	c-5.3-3.5-10.2-7.6-14.8-12c-0.6-0.6-1.5,0-1.3,0.8C31.7,144.8,74.2,178,124.1,176c54.8-2.2,98.7-47.3,99.6-102.1
	C224,46.1,213.6,20.8,196.3,1.9z M55,100.7c2.3-1.7,4.8-2.6,6.9-3c2.2-0.5,4.6-0.1,6.6,1c5.9,3.2,10.5,3.2,12.6,3
	c1.4-0.2,2.8,0.6,3.2,2c0.6,1.6-0.2,5-1.8,8.4c-3.2,6.6-3.4,7.4-3.1,13.9c0,0.6-0.5,1-1,1c-11.2-1.6-21.7-5-31.5-9.8
	C40.9,110,50.2,104.4,55,100.7z M38.2,111.9c0.4-4,1.7-6.8,3.6-6.2c2.9,0.8,0.1,3.3,1.1,6.4c0.4,1.1-0.2,1.8-0.8,2.4
	c-1.4-0.8-2.7-1.6-4-2.4C38.2,112,38.2,111.9,38.2,111.9z"/>
<g class="st6">
	<path class="st5" d="M25.1,225.7H10.9c-0.7,7.2-3.4,11.7-8.2,13.4c-0.4,0-0.5-0.2-0.5-0.6c0-0.4,0.1-0.7,0.4-0.8
		c3.6-2.5,5.5-7,5.7-13.6v-14.7c0-0.4,0-0.7-0.1-1c-0.1-0.3-0.1-0.6-0.1-0.6c0-0.1,0-0.1,0.1-0.1s0.5,0.2,1.2,0.5
		c0.7,0.3,1.6,0.7,2.5,1.2h12.2c0.3-0.1,0.7-0.5,1.2-1.1c0.5-0.6,0.8-0.9,1-0.9h0c2.1,1.1,3.2,2,3.2,2.6c0,0.1-0.3,0.4-0.8,0.7
		c-0.5,0.4-0.8,0.7-0.8,0.9v25.2c0,1.5-0.9,2.3-2.7,2.5c-1.7-1.8-4.3-2.6-7.7-2.6c-0.3-0.1-0.5-0.3-0.5-0.5s0.1-0.4,0.4-0.6l6.8,0.6
		c0.5,0,0.7-0.3,0.7-0.6V225.7z M11.2,216.9h14v-6.2c0-0.2-0.1-0.4-0.2-0.6H11.2c0,0.1,0,0.2,0,0.4V216.9z M25.1,217.8h-14v7h14
		V217.8z"/>
	<path class="st5" d="M69.8,215.5c-9.3,0-18.7,0-28,0c-0.6,0-1.4,0.2-2.4,0.5l-1.8-1.5l0.3-0.4c1.4,0.2,3,0.3,4.9,0.4h9.8v-2.8
		l-0.2-1.6c0-0.2,0.1-0.3,0.3-0.3c2.6,0.2,3.9,0.5,3.9,0.8c0,0.1-0.2,0.3-0.5,0.5s-0.5,0.4-0.5,0.7v2.7h10.3l2.1-2.2
		c1.8,1.5,2.7,2.4,2.7,3C70.6,215.4,70.3,215.5,69.8,215.5z M39.7,234c-0.2,0.1-0.4,0.1-0.5,0.1c-0.3,0-0.5-0.3-0.5-0.8
		c0-0.2,0.1-0.4,0.3-0.6c3.7-5.5,6.2-10.9,7.5-16.2c2.8,0.6,4.2,1.2,4.2,1.8l-1.8,0.6c-1,2.4-2,4.5-3.1,6.4c0.9,0.1,1.3,0.2,1.3,0.4
		s-0.2,0.3-0.6,0.5c-0.4,0.2-0.6,0.4-0.6,0.7v12.1c0.1,1.5,0.2,2.5,0.2,3.1c0,0.5-0.7,0.7-2.2,0.7c-0.5,0-0.8-0.3-0.8-0.9l0.2-2.9
		v-9.5C42,231.3,40.9,232.8,39.7,234z M68.9,242.8c-3.8-1.7-6.9-3.9-9.5-6.5c-2.8,2.4-6.2,4.4-10.1,6c-0.2,0.1-0.4,0.1-0.5,0.1
		c-0.4,0-0.6-0.3-0.6-0.8c0-0.1,0.1-0.2,0.4-0.4c3.8-2,7-4.2,9.5-6.7c-1.7-2-3.4-4.5-5.1-7.4c-1.3,1.8-2.7,3.4-4.1,4.6
		c-0.1,0-0.3,0.1-0.5,0.1c-0.3,0-0.5-0.1-0.5-0.4c0-0.3,0.1-0.6,0.3-0.8c3.5-4.3,5.9-9,7.2-14.1c2.7,0.1,4.2,0.7,4.4,1.5l-1.5,0.4
		c-0.5,0.9-0.9,1.8-1.4,2.6H64c0.3-0.1,0.7-0.5,1.2-1c0.5-0.5,0.8-0.8,1-0.8c0.6,0,1.4,0.3,2.1,1c0.8,0.6,1.2,1,1.2,1.2
		c0,0-0.2,0.2-0.7,0.7c-0.5,0.4-0.7,0.7-0.8,0.9c-1.5,4.5-3.8,8.4-7.1,11.6c2.8,2.2,6,3.9,9.7,5.1C70.1,240.7,69.5,241.7,68.9,242.8
		z M56.1,222.1c-0.8,1.4-1.5,2.6-2.3,3.8c1.5,2.8,3.4,5.3,5.6,7.3c2.9-3.2,4.8-6.7,5.8-10.7c0-0.2-0.1-0.3-0.2-0.5H56.1z
		 M55.8,224.7c-0.1-0.1-0.2-0.3-0.2-0.5s0.1-0.3,0.4-0.3c0.2,0,0.8,0.2,1.6,0.6c1.6,0.6,2.7,1.2,3.2,1.7c0.6,0.5,0.8,1.3,0.8,2.3
		c0,0.5-0.1,0.9-0.3,1.3c-0.2,0.3-0.4,0.5-0.6,0.5c0,0-0.4-0.3-0.9-0.9C59.4,228.5,58.1,227,55.8,224.7z"/>
	<path class="st5" d="M90.4,237.9c-0.9,0-1.4-0.2-1.4-0.7s0.5-0.8,1.4-0.9c3.5-0.3,6.2-1.9,8.2-4.6c1.6-2.1,2.3-4.9,2.3-8.4
		c0-2.4-0.6-4.2-1.9-5.4c-1.9-1.8-4.1-2.8-6.6-2.8h-0.4c-0.3,0-0.6,0-1.1,0.1c-1.1,6.4-2.1,10.6-3,12.6c-1.4,3-2.8,5.2-4.2,6.4
		c-0.9,0.7-1.6,1.1-2.2,1.1h-0.4c-1.3,0-2.4-1-3.2-2.9c-1.1-1.6-1.7-2.8-1.7-3.7v0c0-2.1,0.7-4.4,2.1-6.9c1.4-2.5,3.2-4.5,5.5-6.1
		c2.3-1.6,4.8-2.4,7.5-2.4c3.9,0,7,1.1,9.1,3.2c2.1,2.5,3.2,5.1,3.2,7.6c0,3.9-1.3,7.2-3.9,9.8c-2.6,2.7-5.7,4-9.2,4H90.4z
		 M88.9,215.4c-1.8,0.3-3.4,1.1-4.8,2.4c-1.4,1.3-2.6,2.8-3.5,4.5c-0.9,1.7-1.4,3.7-1.4,5.9c0,2.2,0.7,3.5,2.1,4h0.2
		c0.8,0,1.6-0.5,2.3-1.6C86.2,227.6,87.9,222.5,88.9,215.4z"/>
	<path class="st5" d="M129,215.8V215c0-1.4-0.2-2.3-0.5-2.7l-1.7,0.1c-2.8,0.2-4.8,0.5-6,0.9c-0.4,0.1-0.7,0.1-0.9,0.2
		c-0.1,0-0.5-0.1-0.9-0.5c-1.4,3.5-3.6,6.4-6.7,8.7l-0.6,0.4v-0.1c-0.1,0-0.3,0.1-0.4,0.1s-0.3-0.1-0.5-0.2
		c-0.2-0.1-0.3-0.3-0.3-0.5s0.1-0.4,0.4-0.7c4.6-3.4,6.9-8.7,6.9-15.8c0-0.3-0.1-0.5-0.3-0.7c-0.2-0.2-0.4-0.4-0.7-0.5
		c-0.3-0.1-0.4-0.2-0.4-0.4c0-0.2,0.2-0.4,0.6-0.4c0.4,0,0.9,0.1,1.5,0.3c2.5,0.7,3.8,1.3,3.8,1.9c0,0.3-0.2,0.6-0.5,0.8
		c-0.3,0.3-0.5,0.4-0.6,0.5l-1.7,4.6c0,0,0.4,0,1.2,0c0.8,0,2.5-0.1,5.1-0.4l7.4-0.8l3.1-1.3c0.6,0,1.3,0.3,2,0.8c0.7,0.6,1,1,1,1.3
		c0,0.3-0.4,0.7-1.3,1.2l-1.2-0.1c-0.3,0-0.9,0-1.8,0c-0.9,0-2.4,0-4.5,0.1l1.7,0.9c0.4,0.2,0.6,0.5,0.6,0.6c0,0.2,0,0.3-0.1,0.4
		c-0.1,0.1-0.3,0.3-0.5,0.4c-0.3,0.2-0.4,0.6-0.5,1.3c-1.2,8.8-5.5,14.2-12.9,16.3c-0.1,0-0.2,0-0.2,0c-0.4,0-0.5-0.3-0.5-0.9v0
		c0-0.3,0.4-0.6,1.2-0.9C124.7,228.3,128,223.5,129,215.8z"/>
	<path class="st5" d="M161.3,218.8c-2.4,0.3-4.8,0.6-7.2,1c-5.3,5.2-8.4,7.8-9.4,7.8c-0.2,0-0.4-0.1-0.5-0.2
		c-0.1-0.2-0.2-0.3-0.2-0.4s0.3-0.4,0.8-0.7c2-1.6,3.8-3.3,5.4-5.2c2.1-2.5,3.2-4.5,3.2-6v-0.2c0-0.7-0.4-1.2-1.2-1.4
		c-0.4-0.1-0.6-0.2-0.6-0.4c0-0.3,0.2-0.5,0.7-0.5c1.1,0,2.2,0.2,3.2,0.6c1,0.4,1.6,0.8,1.7,1.2c0.1,0.2-0.1,0.4-0.4,0.8
		c-0.8,0.8-1.5,1.7-1.9,2.8c1.2,0,3-0.2,5.3-0.7c2.3-0.5,3.6-0.7,3.8-0.8c0.8-0.7,1.2-1,1.3-1.1c0.1,0,0.1-0.1,0.2-0.1
		c0.5,0,1.1,0.3,2.1,0.9c0.9,0.6,1.4,1.1,1.4,1.4c0,0.3-0.2,0.7-0.7,1.1c-0.5,0.4-0.7,0.6-0.7,0.7c-0.6,3.9-3,8-7.3,12.2
		c-5.2,5-10.2,8-14.8,8.9c-0.1,0-0.2,0-0.3,0c-0.6,0-0.9-0.2-0.9-0.7c0-0.6,0.4-1,1.2-1.2c4.5-1.2,8.7-3.9,12.7-8.1
		c-0.2-1.3-0.8-2.4-1.7-3.3c-0.9-0.9-2.5-1.7-4.8-2.4c-0.3-0.1-0.5-0.3-0.5-0.6v0c0-0.4,0.2-0.6,0.7-0.6c0.3,0,0.5,0,0.7,0.1
		c2.6,0.7,4.9,1.8,6.8,3.2c0.4,0.3,0.8,0.6,1,0.9c2.9-3.6,4.4-6.7,4.5-9.3L161.3,218.8z M170.1,214c0,0.8-0.4,1.3-1.2,1.3
		c-0.8,0-1.3-0.3-1.5-0.9l-0.3-1.1c-0.2-0.8-0.7-1.6-1.3-2.3c-0.6-0.7-1-1.1-1-1.2v-0.1c0-0.3,0.3-0.5,0.9-0.5c0.1,0,0.2,0,0.4,0.1
		c2.5,1.5,3.9,2.9,4.1,4.1C170.1,213.7,170.1,213.8,170.1,214z M174.6,212.9c0,1-0.5,1.4-1.5,1.4c-0.7,0-1.1-0.3-1.3-0.9l-0.3-1.1
		c-0.2-0.7-0.6-1.5-1.3-2.2c-0.6-0.7-1-1.1-1-1.2c0-0.3,0.2-0.5,0.6-0.5c0.1,0,0.2,0,0.4,0.1C173.2,210,174.6,211.5,174.6,212.9z"/>
	<path class="st5" d="M194.7,213.3c-0.1,0.1-0.1,0.3-0.1,0.5c0,0.2,0,0.6,0,1l-0.1,2.1c-0.1,1.4-0.1,3-0.1,4.6c4.4-0.3,8.3-1,11.7-2
		c1-0.3,1.5-0.4,1.6-0.4c0.1,0,0.4,0.1,0.9,0.4c1.4,0.8,2.1,1.4,2.1,1.7c0,0.3-0.3,0.7-1,1c-0.7,0.4-1,0.6-1,0.6l-5.7-0.4l-8.6,1
		v5.7c0,2,0.2,3.3,0.5,3.9c0.3,0.6,1.2,1,2.5,1c3.1,0,4.7-0.1,5-0.2l0.6-0.3c0.8-0.4,1.4-0.5,1.8-0.5s0.9,0.1,1.4,0.2
		c1.2,0.3,2,0.7,2.4,1.3c0.3,0.4,0.4,0.7,0.5,1c0,0.3-0.2,0.5-0.5,0.6c-1.3,0.3-2.5,0.4-3.6,0.4l-6.8,0c-0.2,0-0.5,0-0.7,0
		c-2.1,0-3.5-0.6-4.3-1.7c-0.8-1.1-1.2-2.6-1.2-4.5c0-0.6,0.1-2.7,0.2-6.4c-2.4,0.5-4.9,1-7.3,1.5c-0.5,0-0.9-0.1-1.2-0.3
		c-0.3-0.2-0.8-0.6-1.3-1.2c-0.6-0.6-1-1.2-1.2-1.7s-0.3-0.9-0.3-1.1l0.5-0.6h0.2c0.1,0,0.2,0.2,0.5,0.5c1.1,1,2.1,1.5,3,1.5
		c0,0,0,0,0.1,0h0.1l7-0.8v-3.2c0-1.6-0.1-3.3-0.2-5.1c-1.4,0.4-2.8,0.7-4.2,1.1c-0.5,0-0.9-0.1-1.2-0.3c-0.3-0.2-0.7-0.6-1.3-1.1
		s-0.9-1-1.2-1.5c-0.2-0.5-0.3-0.8-0.3-0.8s0.1-0.2,0.3-0.5c0.2-0.3,0.3-0.3,0.3-0.3c0,0.1,0.3,0.3,0.7,0.6c0.9,0.7,2.3,1,4.1,1
		c1,0,2.1-0.1,3.3-0.3l9-1.5c0.4-0.1,0.8-0.2,1.4-0.4c0.6-0.2,1-0.3,1.2-0.3c0.2,0,0.6,0.1,1.1,0.3c1.4,0.7,2.1,1.3,2.1,1.9
		c0,0.3-0.3,0.7-0.8,1c-0.5,0.4-1,0.6-1.4,0.6c-1.4-0.4-2.8-0.5-4-0.5s-2.3,0.1-3.2,0.2L194.7,213.3z"/>
	<path class="st5" d="M216.3,238.5c-0.5,0-0.7-0.2-0.7-0.6c0-0.3,0.5-0.7,1.4-1.2c6.7-3.4,12.1-9.4,16.2-18c0.7-2,1.1-3.6,1.1-4.8
		c0-1.2-0.3-2-0.9-2.3c-0.1,0-0.2-0.1-0.5-0.2c-0.3-0.1-0.4-0.2-0.4-0.5c0-0.3,0.2-0.4,0.6-0.4c0.4,0,1,0.1,1.7,0.4
		c2.3,0.9,3.5,1.7,3.5,2.4c0,0.3-0.1,0.6-0.4,0.9c-0.2,0.4-0.4,0.7-0.4,0.9c-0.2,1.6-0.9,3.6-2.1,6c-5.7,9.3-11.7,14.9-18,17
		C216.8,238.4,216.5,238.5,216.3,238.5z"/>
</g>
</svg>
